<svg class="song-btn" xmlns="http://www.w3.org/2000/svg" width="16.006" height="15.153" viewBox="0 0 16.006 15.153" fill="#535353">
    <g id="Group_5" data-name="Group 5" transform="translate(0.75 0.75)">
        <path id="Union_1" data-name="Union 1" d="M-791.319-956.676l-3.641-2.478a.674.674,0,0,1-.252-.555.673.673,0,0,1,.252-.554l3.641-2.478a.354.354,0,0,1,.443.027.693.693,0,0,1,.216.527v1.393h1.507a1.115,1.115,0,0,0,.855-.318,2.473,2.473,0,0,0,.509-1.552v-.006c0-.041-.063-4.082-.063-6.291a1.336,1.336,0,0,0-.332-1.011,1.355,1.355,0,0,0-.908-.292.427.427,0,0,1-.059,0h-10.426a1.162,1.162,0,0,0-.876.3,1.518,1.518,0,0,0-.342.977v6.307a1.952,1.952,0,0,0,.606,1.656,1.238,1.238,0,0,0,.619.231h1.625a.75.75,0,0,1,.75.75.75.75,0,0,1-.75.751h-1.636a2.688,2.688,0,0,1-1.795-.779,3.533,3.533,0,0,1-.92-2.608v-6.267A3.008,3.008,0,0,1-801.54-971a2.616,2.616,0,0,1,1.964-.762h10.4a2.842,2.842,0,0,1,2,.679,2.747,2.747,0,0,1,.824,2.122c0,2.172.06,6.134.062,6.265a3.94,3.94,0,0,1-.935,2.633,2.626,2.626,0,0,1-1.929.77h-1.507v2.063a.694.694,0,0,1-.216.527.37.37,0,0,1-.239.092A.363.363,0,0,1-791.319-956.676Z" transform="translate(801.544 971.014)"/>
    </g>
</svg>