<svg class="song-btn" xmlns="http://www.w3.org/2000/svg" width="18.396" height="13.567" viewBox="0 0 18.396 13.567" fill="#535353">
    <path id="Path_3" data-name="Path 3" d="M8.867,24.949a.767.767,0,1,1,0-1.533,5.923,5.923,0,0,0,4.139-1.686A.759.759,0,1,1,14.079,22.8,7.433,7.433,0,0,1,8.867,24.949Z" transform="translate(-8.1 -13.605)"/>
    <path id="Path_4" data-name="Path 4" d="M26.29,23.068l-2.146,2.146a.828.828,0,0,1-.537.23.7.7,0,0,1-.537-.23.741.741,0,0,1,0-1.073l.843-.843H22.151a7.3,7.3,0,0,1-5.212-2.146l-3.833-3.833a5.923,5.923,0,0,0-4.139-1.686.767.767,0,0,1,0-1.533,7.433,7.433,0,0,1,5.212,2.146l3.833,3.833a6.062,6.062,0,0,0,4.139,1.686h1.763l-.843-.843a.759.759,0,0,1,1.073-1.073L26.29,22A.74.74,0,0,1,26.29,23.068Z" transform="translate(-8.123 -11.877)"/>
    <path id="Path_5" data-name="Path 5" d="M28.881,14.649,26.735,16.8a.828.828,0,0,1-.537.23.7.7,0,0,1-.537-.23.741.741,0,0,1,0-1.073l.843-.843H24.742A5.923,5.923,0,0,0,20.6,16.566a.828.828,0,0,1-.537.23.7.7,0,0,1-.537-.23.741.741,0,0,1,0-1.073,7.3,7.3,0,0,1,5.212-2.146h1.763l-.843-.843a.759.759,0,0,1,1.073-1.073l2.146,2.146A.74.74,0,0,1,28.881,14.649Z" transform="translate(-10.715 -11.2)"/>
</svg>